HIERARCHY
ROOT Hips
{
 OFFSET 0.000000 0.000000 0.000000
 CHANNELS 6 Xposition Yposition Zposition Yrotation Xrotation Zrotation
 JOINT Chest
 {
  OFFSET 0.000000 12.953391 -0.028419
  CHANNELS 3 Yrotation Xrotation Zrotation
  JOINT Chest2
  {
   OFFSET 0.000000 10.280254 0.051622
   CHANNELS 3 Yrotation Xrotation Zrotation
   JOINT Chest3
   {
    OFFSET 0.000000 9.287180 0.000000
    CHANNELS 3 Yrotation Xrotation Zrotation
    JOINT Chest4
    {
     OFFSET 0.000000 9.287180 0.000000
     CHANNELS 3 Yrotation Xrotation Zrotation
     JOINT Neck
     {
      OFFSET 0.000000 13.296264 0.000000
      CHANNELS 3 Yrotation Xrotation Zrotation
      JOINT Head
      {
       OFFSET 0.000000 8.959264 0.099003
       CHANNELS 3 Yrotation Xrotation Zrotation
       End Site
       {
        OFFSET 0.000000 17.121337 0.039303
       }
      }
     }
     JOINT RightCollar
     {
      OFFSET -3.193511 7.451388 0.000000
      CHANNELS 3 Yrotation Xrotation Zrotation
      JOINT RightShoulder
      {
       OFFSET -15.792092 0.000000 0.000000
       CHANNELS 3 Yrotation Xrotation Zrotation
       JOINT RightElbow
       {
        OFFSET -31.151839 0.000000 0.000000
        CHANNELS 3 Yrotation Xrotation Zrotation
        JOINT RightWrist
        {
         OFFSET -25.536298 0.000000 0.002321
         CHANNELS 3 Yrotation Xrotation Zrotation
         End Site
         {
          OFFSET -19.133213 0.000000 0.000000
         }
        }
       }
      }
     }
     JOINT LeftCollar
     {
      OFFSET 3.193511 7.451388 0.000000
      CHANNELS 3 Yrotation Xrotation Zrotation
      JOINT LeftShoulder
      {
       OFFSET 15.792092 0.000000 0.000000
       CHANNELS 3 Yrotation Xrotation Zrotation
       JOINT LeftElbow
       {
        OFFSET 31.151839 0.000000 0.000000
        CHANNELS 3 Yrotation Xrotation Zrotation
        JOINT LeftWrist
        {
         OFFSET 25.536298 0.000000 0.002321
         CHANNELS 3 Yrotation Xrotation Zrotation
         End Site
         {
          OFFSET 19.133213 0.000000 0.000000
         }
        }
       }
      }
     }
    }
   }
  }
 }
 JOINT RightHip
 {
  OFFSET -10.745749 0.139252 0.014209
  CHANNELS 3 Yrotation Xrotation Zrotation
  JOINT RightKnee
  {
   OFFSET 0.000000 -43.743899 -0.006071
   CHANNELS 3 Yrotation Xrotation Zrotation
   JOINT RightAnkle
   {
    OFFSET 0.000000 -43.214199 0.089931
    CHANNELS 3 Yrotation Xrotation Zrotation
    JOINT RightToe
    {
     OFFSET 0.000000 -9.699830 19.151588
     CHANNELS 3 Yrotation Xrotation Zrotation
     End Site
     {
      OFFSET 0.000000 -1.292898 4.893873
     }
    }
   }
  }
 }
 JOINT LeftHip
 {
  OFFSET 10.745749 0.139252 0.014209
  CHANNELS 3 Yrotation Xrotation Zrotation
  JOINT LeftKnee
  {
   OFFSET 0.000000 -43.743899 -0.006071
   CHANNELS 3 Yrotation Xrotation Zrotation
   JOINT LeftAnkle
   {
    OFFSET 0.000000 -43.214199 0.089931
    CHANNELS 3 Yrotation Xrotation Zrotation
    JOINT LeftToe
    {
     OFFSET 0.000000 -9.699830 19.151588
     CHANNELS 3 Yrotation Xrotation Zrotation
     End Site
     {
      OFFSET 0.000000 -1.292898 4.893873
     }
    }
   }
  }
 }
}
MOTION
Frames: 15
Frame Time: 0.016667
-83.080619 91.228937 -377.774170 -1.507154 2.220314 4.995891 0.629714 12.128742 -0.283470 0.285660 5.390210 -0.141803 0.285622 5.390308 -0.141761 0.215283 4.042761 -0.108723 -0.700696 16.518538 0.007258 -1.303018 -5.505393 0.262711 11.430688 4.365023 13.547832 12.906053 -5.856535 68.447383 8.658185 -0.095938 -2.737044 9.616462 1.569667 -20.834443 -12.800838 3.629945 -11.049760 -22.133959 -3.759173 -65.269779 -30.954301 -18.019006 7.454833 -3.949018 -9.000152 28.995462 -3.741099 -44.874966 3.089599 -9.392108 65.738761 -4.727346 -17.507257 -4.519202 1.109399 0.044202 0.321353 0.364812 7.557073 -10.877424 9.328710 0.242802 31.361599 2.512968 8.593754 -18.209360 -15.821527 -0.021049 0.970269 0.887241
-82.817192 90.917984 -380.524364 -1.523619 1.829948 5.420543 0.891073 12.272863 -0.793757 0.414701 5.453071 -0.374370 0.414633 5.453118 -0.374313 0.314041 4.089643 -0.284174 -0.625276 16.352589 0.239921 -1.247522 -5.811186 0.669595 11.072654 4.096358 13.605219 11.675832 -8.104574 67.885876 17.455027 -0.578160 -2.524916 9.923898 3.477666 -21.597902 -13.113778 4.040550 -11.105757 -27.741016 0.578872 -65.171644 -19.889907 -24.819312 4.260409 -1.689064 -8.050951 27.631468 -7.518194 -42.991960 6.217000 -7.537802 69.913523 -5.387763 -18.521100 -5.924082 -1.169805 0.134699 0.640208 0.723487 6.957563 -13.578376 9.168946 0.442840 34.240838 1.765381 8.441009 -17.898977 -15.797314 -0.009165 0.484343 0.444576
-82.754177 90.857509 -383.267841 -0.929231 1.634375 5.875298 1.100932 12.348142 -1.263955 0.520186 5.485066 -0.587845 0.520186 5.485066 -0.587845 0.395132 4.113308 -0.445228 -0.654218 16.261333 0.465214 -1.383720 -5.977474 1.100398 10.714115 3.939362 13.623834 10.758544 -9.960243 67.444795 26.789318 -0.040094 -2.611785 10.077933 4.762463 -22.057685 -13.366367 4.743299 -11.140581 -31.042466 3.717328 -65.805329 -10.842398 -29.326184 0.088254 -0.214672 -7.249077 26.893284 -10.609768 -40.479483 8.658907 -5.085425 72.805004 -5.313442 -18.367719 -6.476642 -2.238889 0.000000 -0.000000 0.000000 6.898667 -16.107813 8.847837 0.259024 35.648379 1.223882 7.524304 -16.433695 -15.727759 0.000000 -0.000000 0.000000
-82.898999 91.135823 -385.984810 0.426720 1.702119 6.358516 1.193515 12.276289 -1.692516 0.572381 5.451679 -0.779499 0.572426 5.451649 -0.779525 0.436000 4.088013 -0.589356 -0.801746 16.321543 0.666845 -1.729448 -5.858944 1.527423 10.262662 3.650794 13.547433 10.626433 -10.803442 67.249699 36.508539 3.007165 -3.192733 9.515136 5.112061 -22.691185 -13.501900 5.703753 -11.147282 -29.763510 4.770766 -67.594769 -6.037770 -30.031383 -1.708884 -0.045463 -7.372089 27.000855 -12.625678 -37.310434 10.189349 -1.857431 74.017863 -4.045512 -16.250749 -6.055801 -1.377939 -0.827374 -2.707668 -3.303434 8.233464 -18.020740 8.032612 -0.755946 34.188029 1.065993 5.637110 -13.517329 -15.841557 0.000000 0.000000 0.000000
-83.244232 91.664615 -388.695064 2.398961 1.946724 6.880595 1.230615 12.144679 -2.089733 0.598728 5.391865 -0.955710 0.598726 5.391783 -0.955706 0.457170 4.042888 -0.721555 -1.044205 16.460772 0.867759 -2.248329 -5.588801 1.984059 9.810883 3.481302 13.430370 10.818667 -11.266695 67.121002 46.734542 7.559435 -3.660000 8.641422 4.870809 -23.372554 -13.550085 6.951745 -11.093227 -26.225798 4.639082 -69.671067 -4.285260 -29.008228 -1.240441 -0.672792 -7.905845 27.360425 -14.139078 -33.648950 11.298165 2.244898 73.936666 -1.877733 -12.570125 -5.112078 0.436950 -1.957014 -5.954943 -7.917830 10.169854 -19.674206 6.894269 -2.220715 31.240628 0.935742 3.105959 -9.397363 -16.103437 0.000000 0.000000 0.000000
-83.703774 92.263884 -391.521046 4.972854 2.322888 7.434706 1.311378 12.031331 -2.352772 0.640832 5.340602 -1.073902 0.640832 5.340602 -1.073902 0.489686 4.004346 -0.810458 -1.357477 16.614098 1.057223 -2.893119 -5.290307 2.442515 9.604395 3.854154 13.268630 10.980073 -12.070008 66.342886 56.451794 11.432954 -3.886682 8.561689 3.530901 -24.077619 -13.476023 7.941875 -11.001596 -23.015336 4.217273 -70.897945 -3.419896 -27.892394 -0.551337 -1.363153 -7.877668 27.564230 -15.276433 -30.303968 11.916869 6.105441 72.894943 0.497396 -8.399253 -3.884439 2.210389 -2.682741 -7.089207 -10.497999 10.955479 -21.236471 5.944461 -2.934926 27.964591 0.630929 0.128853 -5.001167 -16.638103 0.000000 -0.000000 0.000000
-84.274232 92.993174 -394.573984 8.302334 2.919921 8.042000 1.542011 11.975674 -2.409127 0.743827 5.315411 -1.104911 0.743742 5.315921 -1.105025 0.566990 3.985932 -0.834723 -1.817583 16.751637 1.264549 -3.815059 -5.014421 2.983975 9.870034 5.270378 13.109762 11.077556 -13.551156 64.177003 66.178555 13.823834 -4.815586 10.216441 0.345547 -25.619420 -13.249577 8.356128 -10.882786 -20.858491 3.533215 -70.643190 -2.709094 -26.826034 -0.555644 -1.863253 -6.544102 27.440222 -16.411501 -27.508382 12.006698 9.840840 70.732687 3.063156 -3.321343 -1.803212 4.720230 -2.684976 -3.867704 -8.105495 9.383374 -22.848339 5.595899 -1.790242 24.172157 0.065062 -3.902460 0.133702 -17.830516 -0.000000 -0.000000 0.000000
-84.958998 93.792940 -397.742650 12.241864 3.621602 8.723360 1.818710 11.920686 -2.335843 0.863779 5.290117 -1.079572 0.863591 5.290825 -1.079697 0.656491 3.967068 -0.816755 -2.342019 16.902555 1.474172 -4.853052 -4.700217 3.548541 10.431258 7.215241 13.063852 11.030206 -15.170593 61.282345 75.014504 16.150859 -6.460422 12.703961 -3.572111 -28.371520 -12.929633 8.496999 -10.757736 -19.112449 2.301608 -69.636099 -2.751160 -25.507285 -0.615898 -2.362857 -4.632927 27.188895 -17.322903 -25.004496 11.786961 12.563136 67.531148 4.931574 2.295108 0.276573 7.624914 -1.608525 0.255380 -2.859165 6.580381 -24.493539 5.607654 0.185205 20.127427 -0.699994 -8.449305 5.500732 -19.636251 0.000000 -0.000000 0.000000
-85.682147 94.304554 -400.815807 16.318880 4.084864 9.432779 1.925424 11.799857 -2.249605 0.908547 5.235048 -1.043555 0.908547 5.235048 -1.043555 0.689899 3.924760 -0.789925 -2.678124 17.088800 1.596416 -5.508065 -4.323378 3.881753 10.899549 8.588108 13.092308 10.509399 -16.466679 59.112622 80.272721 18.517357 -7.325694 14.425247 -6.430330 -30.730905 -12.624444 8.763346 -10.656996 -18.258020 0.971093 -68.605125 -3.346063 -24.807257 -0.527360 -2.788522 -3.386008 27.128762 -17.218436 -22.850872 11.510801 13.060794 63.995563 5.619866 5.659996 1.241394 7.990058 0.000000 -0.000000 0.000000 4.313167 -26.163844 5.468619 1.004956 17.623848 -1.358804 -11.653252 8.723215 -20.858235 0.000000 0.000000 0.000000
-86.425683 94.369174 -403.701673 20.643291 4.156189 10.170904 1.625653 11.535833 -2.200299 0.774510 5.117328 -1.013011 0.774961 5.116125 -1.012846 0.589602 3.835057 -0.765563 -2.660766 17.380995 1.562384 -5.451531 -3.779079 3.798374 11.071150 8.932278 13.018381 9.260506 -17.668784 58.339553 81.326386 20.627121 -6.070572 14.636293 -8.737860 -31.214672 -12.338249 9.603269 -10.598617 -18.649387 -0.396120 -67.671296 -4.295037 -25.256657 -0.258950 -3.161927 -3.520672 27.552110 -14.949362 -21.184931 11.004095 10.550389 60.240766 5.492139 5.169006 1.828821 3.341499 1.219757 -8.040599 -4.100715 3.303346 -27.866820 4.740555 -0.711063 17.224217 -1.703197 -12.752144 8.191110 -20.752881 -0.000000 -0.000000 0.000000
-87.207602 94.145640 -406.492029 25.091227 3.982278 10.878270 1.155184 11.200768 -2.145911 0.563769 4.970664 -0.976668 0.564245 4.969374 -0.976502 0.431161 3.725306 -0.736444 -2.454031 17.711970 1.444972 -5.015598 -3.184112 3.495122 11.085804 8.726815 12.850310 7.649008 -18.702626 58.340304 79.364042 21.892079 -3.691073 14.218742 -10.722926 -30.287261 -12.045447 10.578612 -10.509984 -19.917546 -1.718302 -66.659687 -5.841859 -26.307318 0.151866 -3.560422 -4.287810 28.234576 -11.668553 -19.782022 10.435545 6.811517 55.978526 5.156142 2.299117 2.127235 -4.047190 2.086129 -19.256390 -11.733566 2.917659 -29.512050 3.693092 -3.689526 18.224842 -1.812118 -12.456086 5.542460 -19.593379 -0.000000 0.000000 -0.000000
-88.005958 93.751849 -409.250979 28.834095 3.718900 11.393695 1.003493 10.966140 -2.052523 0.492600 4.869391 -0.931738 0.492600 4.869391 -0.931738 0.376668 3.651306 -0.702316 -2.315059 17.898364 1.338744 -4.713309 -2.855167 3.242145 11.025386 8.288765 12.686550 6.437837 -18.849630 58.683966 74.661135 21.259676 -1.924742 13.705747 -10.677397 -28.435504 -11.828142 10.760931 -10.327474 -21.332062 -2.390522 -65.749445 -8.496813 -27.211821 0.845914 -3.973713 -4.739135 28.742917 -9.960338 -18.335801 10.502238 4.674907 51.510604 4.772998 -1.015675 0.617681 -10.262333 2.439014 -25.899048 -16.362039 2.900982 -30.951923 2.811317 -5.983029 20.501052 -1.651038 -11.040726 3.290625 -17.309020 0.000000 0.000000 0.000000
-88.784844 93.150388 -412.008556 31.319098 3.460444 11.645278 1.440919 10.851639 -1.894923 0.681932 4.818227 -0.872367 0.681976 4.819037 -0.872502 0.518128 3.613886 -0.659465 -2.335699 17.876199 1.238754 -4.717679 -2.900582 3.065088 10.847801 7.584925 12.516251 5.566996 -17.657662 59.643411 66.942246 16.147213 -0.618450 12.762957 -6.276689 -25.845613 -11.745806 9.538005 -10.159570 -22.962097 -1.723590 -64.968455 -12.301015 -28.173441 1.604164 -4.364109 -4.440802 28.820023 -11.311005 -16.502042 11.607002 5.666118 46.604688 4.161812 -4.337039 -4.475872 -13.842160 1.913491 -24.313053 -13.532601 3.317436 -32.275138 2.249815 -6.744019 24.503067 -0.860065 -7.784642 2.009028 -13.444988 -0.000000 0.000000 -0.000000
-89.580168 92.378670 -414.734727 33.101659 3.164532 11.711548 2.197990 10.834138 -1.681553 1.012339 4.807808 -0.795635 1.012728 4.808273 -0.795755 0.765656 3.605247 -0.604539 -2.441757 17.715023 1.117823 -4.880542 -3.199590 2.886148 10.582595 6.652431 12.311704 5.189447 -15.686276 61.036734 57.050572 8.758314 1.414607 10.989979 0.549796 -23.774100 -11.818900 7.527109 -10.077253 -24.695838 -0.414286 -64.299159 -17.211657 -28.990424 2.651221 -4.689880 -3.875350 28.634314 -14.090888 -14.671664 13.133031 8.089584 41.722894 3.352418 -7.769581 -11.625977 -16.250949 0.948372 -18.240043 -7.339992 4.045113 -33.444804 1.926612 -6.696572 29.794447 0.498606 -3.119180 0.610857 -8.889364 -0.000000 0.000000 0.000000
-90.477697 91.666831 -417.403497 35.020259 2.797726 11.673564 2.958588 11.019644 -1.409146 1.342263 4.888614 -0.693857 1.342263 4.888614 -0.693857 1.011649 3.664964 -0.530840 -2.653462 17.429798 1.018307 -5.248309 -3.725248 2.787875 10.436390 5.892246 12.199284 6.335408 -13.751344 61.822727 46.648194 4.637255 2.897772 9.169778 4.884265 -22.839063 -12.084258 5.636029 -9.966440 -25.508176 0.017045 -63.753930 -23.409760 -28.228851 4.223476 -4.880076 -3.497221 28.378241 -16.273000 -13.839960 14.348540 9.667428 38.295495 2.695276 -10.397242 -17.177478 -18.051239 0.291767 -12.064868 -2.760417 4.475854 -34.201699 2.071549 -6.303715 35.010673 1.798604 0.864127 -0.577008 -5.173478 0.000000 -0.000000 0.000000
